<svg xmlns="http://www.w3.org/2000/svg" viewBox="0 0 3840 2160"><defs><style>.cls-1{fill:#191919;}.cls-2,.cls-5{fill:none;stroke:#e6e6e5;stroke-miterlimit:10;}.cls-2{opacity:0.23;}.cls-3,.cls-4,.cls-8,.cls-9{font-size:24px;}.cls-19,.cls-3{fill:#f18d00;}.cls-11,.cls-12,.cls-13,.cls-14,.cls-15,.cls-16,.cls-17,.cls-18,.cls-19,.cls-20,.cls-3,.cls-4,.cls-6,.cls-7,.cls-8,.cls-9{font-family:SFPro-Medium, SF Pro;font-weight:500;}.cls-4,.cls-6,.cls-7{fill:#e6e6e5;}.cls-5{stroke-width:3px;}.cls-11,.cls-12,.cls-14,.cls-15,.cls-16,.cls-6,.cls-7{font-size:48px;}.cls-14,.cls-15,.cls-7{letter-spacing:-0.1em;}.cls-8{fill:#9b82aa;}.cls-11,.cls-18,.cls-9{fill:#41b25d;}.cls-10{letter-spacing:0.5em;}.cls-12,.cls-13,.cls-14{fill:#e60012;}.cls-13,.cls-17,.cls-18,.cls-19,.cls-20{font-size:72px;}.cls-15,.cls-16,.cls-17{fill:#009fb9;}.cls-20{fill:#746aae;}.cls-21{letter-spacing:0.05em;}.cls-22{font-family:SFPro-Regular, SF Pro;font-weight:400;}</style></defs><g id="Background"><rect class="cls-1" width="3840" height="2160"/></g><g id="Guide"><rect class="cls-2" x="1230" y="490" width="220" height="220"/><rect class="cls-2" x="990" y="490" width="220" height="220"/><rect class="cls-2" x="1470" y="490" width="220" height="220"/><rect class="cls-2" x="1950" y="490" width="220" height="220"/><rect class="cls-2" x="1710" y="490" width="220" height="220"/><rect class="cls-2" x="2190" y="490" width="220" height="220"/><rect class="cls-2" x="2430" y="490" width="220" height="220"/><rect class="cls-2" x="2910" y="490" width="220" height="220"/><rect class="cls-2" x="2670" y="490" width="220" height="220"/><rect class="cls-2" x="3150" y="490" width="220" height="220"/><rect class="cls-2" x="510" y="490" width="220" height="220"/><rect class="cls-2" x="1330" y="740" width="220" height="220"/><rect class="cls-2" x="1090" y="740" width="220" height="220"/><rect class="cls-2" x="1570" y="740" width="220" height="220"/><rect class="cls-2" x="2050" y="740" width="220" height="220"/><rect class="cls-2" x="1810" y="740" width="220" height="220"/><rect class="cls-2" x="2290" y="740" width="220" height="220"/><rect class="cls-2" x="2530" y="740" width="220" height="220"/><rect class="cls-2" x="3010" y="740" width="220" height="220"/><rect class="cls-2" x="2770" y="740" width="220" height="220"/><rect class="cls-2" x="850" y="740" width="220" height="220"/><rect class="cls-2" x="610" y="740" width="220" height="220"/><rect class="cls-2" x="1430" y="990" width="220" height="220"/><rect class="cls-2" x="1190" y="990" width="220" height="220"/><rect class="cls-2" x="1670" y="990" width="220" height="220"/><rect class="cls-2" x="2150" y="990" width="220" height="220"/><rect class="cls-2" x="1910" y="990" width="220" height="220"/><rect class="cls-2" x="2390" y="990" width="220" height="220"/><rect class="cls-2" x="2630" y="990" width="220" height="220"/><rect class="cls-2" x="2870" y="990" width="220" height="220"/><rect class="cls-2" x="950" y="990" width="220" height="220"/><rect class="cls-2" x="710" y="990" width="220" height="220"/><rect class="cls-2" x="1130" y="240" width="220" height="220"/><rect class="cls-2" x="890" y="240" width="220" height="220"/><rect class="cls-2" x="1370" y="240" width="220" height="220"/><rect class="cls-2" x="1850" y="240" width="220" height="220"/><rect class="cls-2" x="1610" y="240" width="220" height="220"/><rect class="cls-2" x="2090" y="240" width="220" height="220"/><rect class="cls-2" x="2330" y="240" width="220" height="220"/><rect class="cls-2" x="2810" y="240" width="220" height="220"/><rect class="cls-2" x="2570" y="240" width="220" height="220"/><rect class="cls-2" x="3050" y="240" width="220" height="220"/><rect class="cls-2" x="650" y="240" width="220" height="220"/><rect class="cls-2" x="410" y="240" width="220" height="220"/><rect class="cls-2" x="170" y="240" width="220" height="220"/><rect class="cls-2" x="170" y="100" width="220" height="110"/><rect class="cls-2" x="3290" y="240" width="220" height="220"/><rect class="cls-2" x="3530" y="240" width="220" height="220"/><rect class="cls-2" x="3390" y="490" width="360" height="220"/></g><g id="Body"><g id="Orange"><text class="cls-3" transform="translate(604.67 555.17)">ex mode</text><text class="cls-3" transform="translate(616.19 647.84)">record<tspan x="0.98" y="24">macro</tspan></text><text class="cls-3" transform="translate(1331.56 648.09)">replace<tspan x="15.4" y="24">char</tspan></text><text class="cls-3" transform="translate(1331.6 539.63)">replace<tspan x="8.82" y="24">mode</tspan></text><text class="cls-3" transform="translate(1825.17 539.63)">yank<tspan x="6.76" y="24">line</tspan></text><text class="cls-3" transform="translate(2063.54 663.17)">undo</text><text class="cls-3" transform="translate(2063.58 539.63)">undo<tspan x="8.34" y="24">line</tspan></text><text class="cls-3" transform="translate(2291.56 648.09)">replace<tspan x="15.4" y="24">char</tspan></text><text class="cls-3" transform="translate(2300.95 539.63)">insert<tspan x="-6.06" y="24">at BOL</tspan></text><text class="cls-3" transform="translate(710.51 913.39)">append</text><text class="cls-3" transform="translate(710.55 789.85)">append<tspan x="5.02" y="24">at EOL</tspan></text><text class="cls-3" transform="translate(936.55 898.31)">substitute<tspan x="29" y="24">char</tspan></text><text class="cls-3" transform="translate(936.59 789.85)">substitute<tspan x="33.92" y="24">line</tspan></text><text class="cls-3" transform="translate(2736.53 1148.29)">repeat<tspan x="-18.68" y="24">command</tspan></text><text class="cls-3" transform="translate(2145.37 805.17)">join lines</text><text class="cls-3" transform="translate(2404.79 805.17)">help</text><text class="cls-3" transform="translate(2843.25 789.63)">ex command<tspan x="48.68" y="24">line</tspan></text><text class="cls-3" transform="translate(2506.62 555.17)">open above</text><text class="cls-3" transform="translate(2508.37 663.17)">open below</text><text class="cls-3" transform="translate(2755.45 555.17)">put before</text><text class="cls-3" transform="translate(2792.82 663.17)">put</text><text class="cls-3" transform="translate(731.98 305.17)">play macro</text><text class="cls-3" transform="translate(1197.74 789.63)">delete<tspan x="-2.5" y="24">to EOL</tspan></text><text class="cls-3" transform="translate(1058.35 1148.53)">delete<tspan x="9.26" y="24">char</tspan></text><text class="cls-3" transform="translate(1034.04 1055.17)">backspace</text><text class="cls-3" transform="translate(1291.95 1040.07)">change<tspan x="3.94" y="24">to EOL</tspan></text><text class="cls-3" transform="translate(1542.99 1148.53)">enter<tspan x="-34.84" y="24">visual mode</tspan></text><text class="cls-3" transform="translate(1517.3 1040.07)">enter line-<tspan x="-9.1" y="24">visual mode</tspan></text><text class="cls-3" transform="translate(1944.54 305.17)">repeat :s</text><text class="cls-3" transform="translate(2245.46 1163.61)">set mark</text><text class="cls-3" transform="translate(249.02 305.17)">toggle case</text></g><g id="White"><text class="cls-4" transform="translate(669.72 1446.31)">commands need a char argument afterwards</text><rect class="cls-5" x="3050" y="240" width="220" height="220" rx="10"/><text class="cls-6" transform="translate(3072.26 313.71)">+</text><text class="cls-7" transform="translate(3076.44 422)">=</text><rect class="cls-5" x="3390.81" y="490" width="359.19" height="220" rx="10"/><text class="cls-6" transform="translate(3413.07 563.71)">|</text><text class="cls-7" transform="translate(3417.25 672)">\</text><text class="cls-4" transform="translate(650 1343.29)">commands enter insert mode</text><rect class="cls-5" x="650" y="240" width="220" height="220" rx="10"/><text class="cls-6" transform="translate(192.26 313.71)">~</text><rect class="cls-5" x="170" y="240" width="220" height="220" rx="10"/><rect class="cls-5" x="890" y="240" width="220" height="220" rx="10"/><text class="cls-6" transform="translate(912.26 313.71)">#</text><text class="cls-6" transform="translate(916.44 422)">3</text><text class="cls-7" transform="translate(1152.26 313.71)">$</text><text class="cls-7" transform="translate(1157.68 422)">4</text><rect class="cls-5" x="1130" y="240" width="220" height="220" rx="10"/><text class="cls-7" transform="translate(1392.26 313.71)">%</text><text class="cls-7" transform="translate(1397.68 422)">5</text><rect class="cls-5" x="1370" y="240" width="220" height="220" rx="10"/><text class="cls-7" transform="translate(1632.26 313.71)">^</text><text class="cls-7" transform="translate(1637.68 422)">6</text><rect class="cls-5" x="1610" y="240" width="220" height="220" rx="10"/><text class="cls-7" transform="translate(1872.26 313.71)">&amp;</text><text class="cls-7" transform="translate(1877.68 422)">7</text><rect class="cls-5" x="1850" y="240" width="220" height="220" rx="10"/><text class="cls-7" transform="translate(2112.26 313.71)">*</text><text class="cls-7" transform="translate(2117.68 422)">8</text><rect class="cls-5" x="2090" y="240" width="220" height="220" rx="10"/><rect class="cls-5" x="2330" y="240" width="220" height="220" rx="10"/><text class="cls-6" transform="translate(2352.26 313.71)">(</text><text class="cls-6" transform="translate(2356.44 422)">9</text><rect class="cls-5" x="2570" y="240" width="220" height="220" rx="10"/><text class="cls-6" transform="translate(2592.26 313.71)">)</text><text class="cls-6" transform="translate(2596.44 422)">0</text><rect class="cls-5" x="2810" y="240" width="220" height="220" rx="10"/><text class="cls-6" transform="translate(2832.26 313.71)">_</text><text class="cls-6" transform="translate(2836.44 422)">-</text><rect class="cls-5" x="510" y="490" width="220" height="220" rx="10"/><rect class="cls-5" x="1230" y="490" width="220" height="220" rx="10"/><rect class="cls-5" x="990" y="490" width="220" height="220" rx="10"/><text class="cls-6" transform="translate(1012.26 563.71)">E</text><text class="cls-6" transform="translate(1016.44 672)">e</text><rect class="cls-5" x="1470" y="490" width="220" height="220" rx="10"/><rect class="cls-5" x="1710" y="490" width="220" height="220" rx="10"/><text class="cls-6" transform="translate(1732.26 563.71)">Y</text><text class="cls-6" transform="translate(1736.44 672)">y</text><rect class="cls-5" x="1950" y="490" width="220" height="220" rx="10"/><text class="cls-6" transform="translate(1972.26 563.71)">U</text><text class="cls-6" transform="translate(1976.44 672)">u</text><rect class="cls-5" x="2190" y="490" width="220" height="220" rx="10"/><rect class="cls-5" x="610" y="740.22" width="220" height="220" rx="10"/><rect class="cls-5" x="848.58" y="740.22" width="220" height="220" rx="10"/><text class="cls-6" transform="translate(870.84 813.93)">W</text><text class="cls-6" transform="translate(875.03 922.22)">w</text><rect class="cls-5" x="1090" y="740" width="220" height="220" rx="10"/><text class="cls-6" transform="translate(1112.26 813.71)">D</text><text class="cls-6" transform="translate(1116.44 922)">d</text><text class="cls-4" transform="translate(830.45 1055.17)">quit</text><text class="cls-4" transform="translate(825.08 1147.84)">extra<tspan x="-31.72" y="24">commands</tspan></text><rect class="cls-5" x="711.31" y="990" width="220" height="220" rx="10"/><rect class="cls-5" x="950.66" y="990.45" width="220" height="220" rx="10"/><text class="cls-6" transform="translate(972.91 1064.15)">X</text><text class="cls-6" transform="translate(977.1 1172.45)">x</text><rect class="cls-5" x="1330" y="740" width="220" height="220" rx="10"/><rect class="cls-5" x="1190.66" y="990.45" width="220" height="220" rx="10"/><rect class="cls-5" x="1430" y="990.45" width="220" height="220" rx="10"/><text class="cls-6" transform="translate(1452.26 1064.15)">V</text><text class="cls-6" transform="translate(1456.44 1172.45)">v</text><rect class="cls-5" x="1670" y="990.45" width="220" height="220" rx="10"/><text class="cls-6" transform="translate(1692.26 1064.15)">B</text><text class="cls-6" transform="translate(1696.44 1172.45)">b</text><text class="cls-4" transform="translate(1683.76 898.31)">extra<tspan x="-31.72" y="24">commands</tspan></text><rect class="cls-5" x="1570" y="740.22" width="220" height="220" rx="10"/><rect class="cls-5" x="1910" y="990" width="220" height="220" rx="10"/><text class="cls-6" transform="translate(1932.26 1063.71)">N</text><text class="cls-6" transform="translate(1936.44 1172)">n</text><rect class="cls-5" x="2150" y="990.45" width="220" height="220" rx="10"/><text class="cls-6" transform="translate(2172.26 1064.15)">M</text><text class="cls-6" transform="translate(2412.26 1063.71)">&lt;</text><text class="cls-7" transform="translate(2417.68 1172)">,</text><rect class="cls-5" x="2390" y="990" width="220" height="220" rx="10"/><text class="cls-6" transform="translate(2652.26 1064.15)">&gt;</text><text class="cls-7" transform="translate(2657.68 1172.45)">.</text><rect class="cls-5" x="2630" y="990.45" width="220" height="220" rx="10"/><rect class="cls-5" x="2870" y="990" width="220" height="220" rx="10"/><rect class="cls-5" x="1810" y="740.22" width="220" height="220" rx="10"/><text class="cls-6" transform="translate(1832.26 813.93)">H</text><text class="cls-6" transform="translate(1836.44 922.22)">h</text><rect class="cls-5" x="2050" y="740" width="220" height="220" rx="10"/><text class="cls-6" transform="translate(2072.26 813.71)">H</text><text class="cls-6" transform="translate(2076.44 922)">h</text><text class="cls-6" transform="translate(2310.52 813.71)">K</text><text class="cls-7" transform="translate(2315.95 922)">k</text><rect class="cls-5" x="2288.26" y="740" width="220" height="220" rx="10"/><rect class="cls-5" x="2530" y="740" width="220" height="220" rx="10"/><text class="cls-6" transform="translate(2552.26 813.71)">L</text><text class="cls-6" transform="translate(2556.44 922)">l</text><rect class="cls-5" x="2770" y="740" width="220" height="220" rx="10"/><text class="cls-6" transform="translate(2792.26 813.71)">:</text><text class="cls-6" transform="translate(2796.44 922)">;</text><rect class="cls-5" x="3010" y="740.22" width="220" height="220" rx="10"/><text class="cls-4" transform="translate(3130.3 789.85)">reg.<tspan x="-5.38" y="24">spec</tspan></text><rect class="cls-5" x="2428.26" y="490" width="220" height="220" rx="10"/><text class="cls-6" transform="translate(2692.26 563.71)">P</text><text class="cls-7" transform="translate(2697.68 672)">p</text><rect class="cls-5" x="2670" y="490" width="220" height="220" rx="10"/><rect class="cls-5" x="2910.47" y="490" width="220" height="220" rx="10"/><text class="cls-6" transform="translate(2932.73 563.71)">{</text><rect class="cls-5" x="3150" y="490" width="220" height="220" rx="10"/><text class="cls-6" transform="translate(3172.26 563.71)">}</text><text class="cls-6" transform="translate(442.23 313.71)">!</text><text class="cls-7" transform="translate(437.68 422)">1</text><text class="cls-4" transform="translate(481.52 305.17)">external filter</text><rect class="cls-5" x="410" y="240" width="220" height="220" rx="10"/><text class="cls-7" transform="translate(677.68 422)">2</text><rect class="cls-5" x="750" y="490" width="220" height="220" rx="10"/><text class="cls-6" transform="translate(772.26 563.71)">W</text><text class="cls-6" transform="translate(776.44 672)">w</text><text class="cls-6" transform="translate(532.26 563.71)">Q</text></g><g id="Magenta"><text class="cls-8" transform="translate(1825.12 663.17)">yank</text><text class="cls-8" transform="translate(1197.7 913.17)">delete</text><text class="cls-8" transform="translate(1291.91 1163.61)">change</text><text class="cls-8" transform="translate(2483.13 1055.17)">unindent</text><text class="cls-8" transform="translate(2736.21 1055.61)">indent</text><text class="cls-8" transform="translate(3130.05 413.17)">auto format</text></g><g id="Green"><text class="cls-9" transform="translate(867.39 648.09)">next<tspan x="-3.63" y="24">word</tspan></text><text class="cls-9" transform="translate(867.43 539.63)">next<tspan x="-13.14" y="24">WORD</tspan></text><text class="cls-9" transform="translate(1110.3 648.09)">end<tspan x="-6.54" y="24">word</tspan></text><text class="cls-9" transform="translate(1110.35 539.63)">end<tspan x="-16.05" y="24">WORD</tspan></text><text class="cls-9" transform="translate(1595.59 663.17)">‘till</text><text class="cls-9" transform="translate(1584.73 539.63)">back<tspan x="10.9" y="24">‘till</tspan></text><text class="cls-9" transform="translate(1450.14 898.09)">find<tspan x="-43.96" y="24">char in a line</tspan></text><text class="cls-9" transform="translate(1419.67 789.63)">back-find<tspan x="-11.02" y="24">charin a line</tspan></text><text class="cls-9" transform="translate(1765.42 1148.53)">previous<tspan x="18.34" y="24">word</tspan></text><text class="cls-9" transform="translate(1765.47 1040.07)">previous<tspan x="8.83" y="24">WORD</tspan></text><text class="cls-9" transform="translate(1688.03 789.85)">EOF<tspan x="-22.28" y="24">goto line</tspan></text><text class="cls-9" transform="translate(2027.39 1148.09)">next<tspan x="-32.81" y="24">find (/ or ?)</tspan></text><text class="cls-9" transform="translate(2005.47 1039.63)">previous<tspan x="-10.85" y="24">find (/ or ?)</tspan></text><text class="cls-9" transform="translate(2254.89 1040.07)">screen<tspan x="4.49" y="24">mid</tspan><tspan class="cls-10" x="43.2" y="24">’</tspan><tspan x="60.58" y="24">l</tspan></text><text class="cls-9" transform="translate(2491.32 1147.84)">reverse<tspan x="7.1" y="24">t/T/f/F</tspan></text><text class="cls-9" transform="translate(2990.14 1163.17)">find</text><text class="cls-9" transform="translate(2990.18 1039.63)">find<tspan x="-31.35" y="24">backward</tspan></text><text class="cls-11" transform="translate(1927.93 922.33)">←</text><text class="cls-9" transform="translate(1914.89 789.85)">screen<tspan x="17.96" y="24">top</tspan></text><text class="cls-11" transform="translate(2170.96 922.11)">↓</text><text class="cls-11" transform="translate(2409.22 922.11)">↑</text><text class="cls-11" transform="translate(2647.93 922.11)">→</text><text class="cls-9" transform="translate(2634.89 789.63)">screen<tspan x="-2.4" y="24">bottom</tspan></text><text class="cls-9" transform="translate(2876.53 898.09)">repeat<tspan x="1.89" y="24">t/T/f/F</tspan></text><text class="cls-9" transform="translate(3126.25 898.31)">goto<tspan x="-2.37" y="24">mark</tspan></text><text class="cls-9" transform="translate(2986.07 539.63)">beginning of<tspan x="10.88" y="24">paragraph</tspan></text><text class="cls-9" transform="translate(3265.47 663.17)">misc</text><text class="cls-9" transform="translate(3257.49 539.63)">end of<tspan x="-21.02" y="24">paragraph</tspan></text><text class="cls-9" transform="translate(3025.94 663.17)">misc</text><text class="cls-9" transform="translate(257.71 413.17)">goto mark</text><text class="cls-9" transform="translate(1246.96 305.17)">EOL</text><text class="cls-9" transform="translate(1449.9 305.17)">goto match</text><text class="cls-9" transform="translate(1703.77 305.17)">soft BOL</text><text class="cls-9" transform="translate(2171.17 305.17)">next indent</text><text class="cls-9" transform="translate(2405.6 289.63)">beginning of<tspan x="16.51" y="24">sentence</tspan></text><text class="cls-9" transform="translate(2661.26 413.17)">hard BOL</text><text class="cls-9" transform="translate(2677.49 289.63)">end of<tspan x="-15.39" y="24">sentence</tspan></text><text class="cls-9" transform="translate(2905.42 398.09)">previous<tspan x="26.46" y="24">line</tspan></text><text class="cls-9" transform="translate(2904.88 289.63)">soft BOL<tspan x="16.33" y="24">down</tspan></text><text class="cls-9" transform="translate(3167.43 289.63)">next<tspan x="4.49" y="24">line</tspan></text><text class="cls-9" transform="translate(3497.89 555.17)">BOL / goto col</text><text class="cls-9" transform="translate(985.47 289.63)">previous<tspan x="11.86" y="24">indent</tspan></text></g><g id="Red"><text class="cls-12" transform="translate(1252.26 563.71)">R</text><text class="cls-12" transform="translate(2216.26 563.71)">I</text><text class="cls-12" transform="translate(2216.75 672)">i</text><text class="cls-12" transform="translate(632.26 813.93)">A</text><text class="cls-12" transform="translate(636.44 922.22)">a</text><text class="cls-12" transform="translate(1212.91 1064.15)">C</text><text class="cls-12" transform="translate(1217.1 1172.45)">c</text><text class="cls-13" transform="translate(510 1342.56)">Red </text><text class="cls-12" transform="translate(2450.52 563.71)">O</text><text class="cls-14" transform="translate(2455.95 672)">o</text></g><g id="Blue"><text class="cls-15" transform="translate(3036.44 922.22)">‘</text><text class="cls-15" transform="translate(1256.44 672)">r</text><text class="cls-15" transform="translate(2176.44 1172.45)">m</text><text class="cls-15" transform="translate(2936.91 672)">[</text><text class="cls-15" transform="translate(3176.44 672)">]</text><text class="cls-15" transform="translate(1492.26 563.71)">T</text><text class="cls-16" transform="translate(1496.44 672)">t</text><text class="cls-15" transform="translate(733.57 1063.71)">Z</text><text class="cls-15" transform="translate(739 1172)">z</text><text class="cls-15" transform="translate(1352.26 813.71)">F</text><text class="cls-15" transform="translate(1356.44 922)">f</text><text class="cls-15" transform="translate(1592.26 813.93)">G</text><text class="cls-15" transform="translate(1596.44 922.22)">g</text><text class="cls-16" transform="translate(2892.26 1063.71)">?</text><text class="cls-15" transform="translate(2896.44 1172)">/</text><text class="cls-16" transform="translate(3032.26 813.93)">“</text><text class="cls-15" transform="translate(537.68 672)">q</text><text class="cls-15" transform="translate(672.26 313.71)">@</text><text class="cls-15" transform="translate(197.68 422)">`</text><text class="cls-17" transform="translate(514.67 1446.31)">Blue</text><text class="cls-18" transform="translate(514.67 1552)">Green / motion</text><text class="cls-19" transform="translate(514.67 1650.78)">Orange / command</text><text class="cls-20" transform="translate(514.68 1744.16)">Purple / operator</text><text class="cls-4" transform="translate(526.47 1797.51)">BOL … Beginning Of Line<tspan x="0" y="24">EOL</tspan><tspan class="cls-21" x="43.93" y="24"> </tspan><tspan x="49.99" y="24">… End Of Line</tspan><tspan class="cls-22" x="188.93" y="24"> </tspan></text></g></g></svg>